<svg xmlns="http://www.w3.org/2000/svg" version="1.1" viewBox="-5.0 -10.0 110.0 110.0" fill="#C6A25D">
 <path d="m95.918 35.797-12.25-8.8398v-11.59c0-1.0156-0.82422-1.8398-1.8398-1.8398h-5.6719c-1.0156 0-1.8398 0.82422-1.8398 1.8398v4.8398l-13.035-9.4102c-1.332-0.96094-3.1328-0.96094-4.4648 0l-34.637 25c-2.0039 1.4453-2.125 4.3828-0.25 5.9922 1.3359 1.1484 3.2852 1.2266 4.7148 0.19531l32.406-23.391 32.406 23.391c1.4297 1.0312 3.3789 0.94922 4.7148-0.19531 1.875-1.6055 1.7539-4.5469-0.25-5.9922z"/>
 <path d="m59.059 24.355-27.418 19.801c10.363 3.3906 17.887 13.168 17.887 24.645 0 2.4375-0.33984 4.7812-0.95703 7h33.156c2.7148 0 4.9336-2.2188 4.9336-4.9336v-26.555l-27.602-19.953zm1.1094 23.133c2.0352 0 3.7031 1.6641 3.7031 3.6992 0 2.0664-1.6641 3.6992-3.7031 3.6992-2.0352 0-3.6992-1.6328-3.6992-3.6992 0-2.0352 1.6641-3.6992 3.6992-3.6992zm13.973 21.375c-2.0352 0-3.6992-1.6641-3.6992-3.6992 0-2.0352 1.6641-3.6992 3.6992-3.6992s3.6992 1.6641 3.6992 3.6992c0 2.0352-1.6641 3.6992-3.6992 3.6992zm3.0195-17.336-16.684 16.684c-0.89453 0.89453-2.4375 0.89453-3.332 0-0.46094-0.46094-0.71094-1.0469-0.71094-1.6953 0-0.61719 0.24609-1.2031 0.71094-1.6641l16.656-16.656c0.46094-0.46094 1.0781-0.67969 1.6953-0.67969 0.58594 0 1.2031 0.21484 1.6641 0.67969 0.43359 0.42969 0.67969 1.0469 0.67969 1.6641s-0.24609 1.2344-0.67969 1.6641z"/>
 <path d="m23.621 47.684c-11.664 0-21.121 9.457-21.121 21.121 0 11.664 9.457 21.121 21.121 21.121 11.664 0 21.121-9.457 21.121-21.121 0-11.664-9.457-21.121-21.121-21.121zm-1.0156 18.93h2.0117c4.1602 0 7.5117 3.5898 7.1016 7.8281-0.31641 3.1953-2.8398 5.6406-5.9141 6.25v2.8594c0 0.31641-0.25781 0.57422-0.57422 0.57422h-3.2148c-0.31641 0-0.59375-0.25781-0.59375-0.57422v-2.8203c-3.1562-0.53125-5.6211-3.1367-5.8945-6.3711-0.039063-0.33594 0.25781-0.62891 0.58984-0.62891h3.2148c0.27734 0 0.53125 0.17578 0.57031 0.45312 0.21875 1.3008 1.3438 2.2891 2.7031 2.2891h1.8555c1.3789 0 2.6406-0.92578 2.8594-2.2695 0.29688-1.7148-1.0273-3.2148-2.7031-3.2148h-1.6758c-3.7266 0-7.0586-2.7031-7.4141-6.4102-0.375-3.8281 2.3086-7.1211 5.8945-7.7109v-2.7969c0-0.33594 0.27734-0.59375 0.59375-0.59375h3.2148c0.31641 0 0.57422 0.25781 0.57422 0.59375v2.7969c3.1758 0.53125 5.6406 3.1367 5.9141 6.3906 0.019531 0.33594-0.25781 0.60938-0.58984 0.60938h-3.2344c-0.25391 0-0.51172-0.17969-0.55078-0.43359-0.21875-1.3008-1.3594-2.3086-2.7227-2.3086h-1.8555c-1.3594 0-2.625 0.92578-2.8594 2.2891-0.27734 1.7188 1.0469 3.1953 2.7031 3.1953z"/>
</svg>