<svg xmlns="http://www.w3.org/2000/svg" version="1.1" viewBox="-5.0 -10.0 110.0 110.0" fill="#C6A25D">
 <path d="m50.031 59.234c-0.25 0-0.5-0.046875-0.73438-0.125-16.156-5.3594-25.422-20.234-25.422-40.797 0-0.92188 0.54688-1.7656 1.3906-2.1406l23.812-10.516c0.59375-0.26562 1.2969-0.26562 1.8906 0l23.812 10.516c0.84375 0.375 1.3906 1.2188 1.3906 2.1406 0 20.562-9.2656 35.422-25.422 40.797-0.23438 0.078125-0.48438 0.125-0.73438 0.125zm-21.453-39.391c0.42188 17.297 8.1875 29.812 21.453 34.562 13.266-4.7656 21.031-17.266 21.453-34.562l-21.453-9.4688z"/>
 <path d="m46.688 41.031c-0.59375 0-1.2031-0.23438-1.6562-0.6875l-7.0312-7.0312c-0.92188-0.92188-0.92188-2.4062 0-3.3125s2.4062-0.92188 3.3125 0l5.375 5.375 12.047-12.047c0.92188-0.92188 2.4062-0.92188 3.3125 0s0.92188 2.4062 0 3.3125l-13.719 13.719c-0.45312 0.45312-1.0625 0.6875-1.6562 0.6875z"/>
 <path d="m56.453 78.609h-13.609c-1.2969 0-2.3438-1.0469-2.3438-2.3438s1.0469-2.3438 2.3438-2.3438h13.609c0.98438 0 1.7812-0.79688 1.7812-1.7812s-0.79688-1.7812-1.7812-1.7812h-6.6719c-2.3594 0-4.6406-0.48438-6.7969-1.4219l-5.9688-2.6094c-2.9688-1.2969-6.2812-1.375-9.3125-0.21875l-4.5938 1.75c-1.2031 0.45312-2.5625-0.14062-3.0312-1.3594-0.45312-1.2031 0.14062-2.5625 1.3594-3.0312l4.5938-1.75c4.1875-1.5938 8.75-1.4844 12.859 0.3125l5.9688 2.6094c1.5625 0.6875 3.2188 1.0312 4.9375 1.0312h6.6719c3.5625 0 6.4688 2.9062 6.4688 6.4688s-2.9062 6.4688-6.4688 6.4688z"/>
 <path d="m50.453 94.531c-1.0938 0-2.2031-0.125-3.2812-0.39062l-25.469-6.2188c-1.25-0.3125-2.0312-1.5781-1.7188-2.8281s1.5781-2.0312 2.8281-1.7188l25.469 6.2188c2.3594 0.57812 4.7969 0.1875 6.875-1.0625l29.281-17.828c0.5625-0.34375 0.79688-1.0312 0.5625-1.6562-0.26562-0.70312-1.0625-1.0469-1.75-0.78125l-22.688 8.5938c-1.2031 0.45312-2.5625-0.15625-3.0156-1.3594s0.15625-2.5625 1.3594-3.0156l22.688-8.5938c3.0938-1.1719 6.5938 0.39062 7.7812 3.4688 1.0625 2.7344 0 5.8281-2.5 7.3438l-29.281 17.828c-2.1875 1.3281-4.6406 2.0156-7.125 2.0156z"/>
 <path d="m22.266 92.062h-9.6875c-1.2969 0-2.3438-1.0469-2.3438-2.3438v-28.281c0-1.2969 1.0469-2.3438 2.3438-2.3438h9.6875c1.2969 0 2.3438 1.0469 2.3438 2.3438v28.281c0 1.2969-1.0469 2.3438-2.3438 2.3438zm-7.3438-4.6875h5v-23.594h-5z"/>
</svg>