<svg xmlns="http://www.w3.org/2000/svg" xmlns:xlink="http://www.w3.org/1999/xlink" version="1.1" x="0px" y="0px" viewBox="0 0 100 100" fill="#C6A25D" xml:space="preserve"><polygon points="83.171,86.098 83.171,51.951 70.488,51.951 70.488,86.098 65.61,86.098 65.61,66.585 52.927,66.585 52.927,86.098   48.049,86.098 48.049,60.732 35.366,60.732 35.366,86.098 30.488,86.098 30.488,72.439 17.805,72.439 17.805,86.098 13.902,86.098   13.902,75.19 44.02,45.073 53.249,54.205 56.468,57.376 83.229,30.605 82.322,45.034 86.829,45.327 88.263,22.371 65.327,23.815   65.6,28.312 80.039,27.415 56.439,51.015 44,38.722 13.902,68.8 13.902,10 10,10 10,90 90,90 90,86.098 "/><g><g><g><path d="M28.928,18.8c-6.74,0-12.22,5.48-12.22,12.22c0,0.41,0.02,0.81,0.06,1.2v0.05c0.63,6.16,5.84,10.97,12.16,10.97     c6.74,0,12.22-5.48,12.22-12.22S35.668,18.8,28.928,18.8z M33.768,34.01c0,2.05-1.48,3.7-3.48,4.04v1.66     c0,0.77-0.63,1.39-1.39,1.39c-0.77,0-1.39-0.62-1.39-1.39v-1.66c-1.52-0.25-2.87-1.29-3.35-2.66c-0.26-0.72,0.11-1.52,0.84-1.77     c0.72-0.26,1.51,0.12,1.77,0.84c0.17,0.47,0.84,0.88,1.44,0.88h1.32c0.73,0,1.46-0.46,1.46-1.33v-0.14     c0-0.87-0.73-1.33-1.46-1.33h-1.31c-0.07,0-0.14,0-0.21-0.01c-2.21-0.14-3.97-1.98-3.97-4.23c0-2.07,1.5-3.8,3.47-4.17v-1.8     c0-0.77,0.62-1.39,1.39-1.39c0.76,0,1.39,0.62,1.39,1.39v1.77c1.49,0.2,2.78,1.22,3.29,2.67c0.26,0.72-0.12,1.52-0.84,1.77     c-0.15,0.06-0.31,0.08-0.47,0.08c-0.57,0-1.1-0.35-1.3-0.92c-0.19-0.51-0.68-0.86-1.23-0.86h-1.46c-0.81,0-1.46,0.66-1.46,1.46     c0,0.81,0.65,1.46,1.46,1.46c0.05,0,0.09,0,0.14,0.01h1.11c2.38,0,4.24,1.8,4.24,4.1V34.01z"/></g></g></g></svg>