<svg xmlns="http://www.w3.org/2000/svg" version="1.1" viewBox="-5.0 -10.0 110.0 110.0" fill="#C6A25D">
 <path d="m15.375 81.195-2.4297-0.023437c-0.80469 0-1.4766-0.65234-1.4766-1.4766 0-0.80469 0.67188-1.4531 1.4766-1.4531h2.4297v-17.734l4.9062 10.68v13.699h9.7266c0.36719 0 0.67188-0.30469 0.67188-0.67188v-0.78125c0-1.2383-1-2.2578-2.2344-2.2578h-2.082c-0.80469 0-1.4766-0.65234-1.4766-1.4766 0-0.80469 0.67188-1.4531 1.4766-1.4531h1.0195l0.066407-9.9648c0-0.39062-4.2109-14.695-4.9258-18.539l2.3867-9.1172 2.6719 4.7539c0.5 0.89062 1.2812 1.4336 2.2578 1.6484l9.7891 2.1289c2.8008 0.58594 5.5781-1.1953 6.1875-3.9961l0.41406-1.9766-13.219-2.8672-4.0156-7.0352c-4.4922-5.9062-5.9922-5.0352-12.113-5.2969-8.4023 0-9.9844 14.652-9.9844 20.969v35.926h9.7266c0.36719 0 0.65234-0.30469 0.65234-0.67188v-0.78125c-0.011719-1.125-0.83594-2.0586-1.9023-2.2305zm24.207-25.68c0 0.80469-0.65234 1.4531-1.4766 1.4531-0.80469 0-1.4531-0.65234-1.4531-1.4531 0-1.5195 0.60938-2.8867 1.6055-3.8867 0.023438-0.023437 0.066407-0.042968 0.085938-0.085937 1-0.93359 2.3242-1.5195 3.7773-1.5195 1.5195 0 2.8867 0.62891 3.8867 1.6055 0.023438 0.042969 0.066407 0.066406 0.085938 0.10938 0.93359 0.97656 1.5195 2.3242 1.5195 3.7773v21.426c0 0.82422-0.65234 1.4766-1.4766 1.4766-0.80469 0-1.4766-0.65234-1.4766-1.4766v-21.426c0-0.67188-0.26172-1.2812-0.67188-1.7383-0.023437-0.023438-0.042969-0.042969-0.066406-0.066406-0.45703-0.45703-1.1055-0.73828-1.8008-0.73828-0.67188 0-1.2812 0.26172-1.7383 0.67188-0.023437 0.023438-0.023437 0.042969-0.042968 0.066407-0.47656 0.45703-0.75781 1.1094-0.75781 1.8047zm25.418 21.469h22.793c0.80469 0 1.4336-0.65234 1.4336-1.4336v-3.3633c0-0.80469-0.62891-1.4531-1.4336-1.4531l-22.793-0.003906c-0.78125 0-1.4336 0.65234-1.4336 1.4531v3.3633c0 0.78516 0.65234 1.4375 1.4336 1.4375zm0 9.0078h22.793c0.80469 0 1.4336-0.65234 1.4336-1.4336v-3.3867c0-0.78125-0.62891-1.4336-1.4336-1.4336h-22.793c-0.78125 0-1.4336 0.65234-1.4336 1.4336v3.3867c0 0.78125 0.65234 1.4336 1.4336 1.4336zm0 9.0078h22.793c0.80469 0 1.4336-0.65234 1.4336-1.4336v-3.3867c0-0.78125-0.62891-1.4336-1.4336-1.4336l-22.793 0.003906c-0.78125 0-1.4336 0.65234-1.4336 1.4336v3.3867c0 0.77734 0.65234 1.4297 1.4336 1.4297zm-29.285-9.0078h22.793c0.80469 0 1.4531-0.65234 1.4531-1.4336v-3.3867c0-0.78125-0.65234-1.4336-1.4531-1.4336h-22.793c-0.78125 0-1.4336 0.65234-1.4336 1.4336v3.3867c0.003906 0.78125 0.65234 1.4336 1.4336 1.4336zm0 9.0078h22.793c0.80469 0 1.4531-0.65234 1.4531-1.4336v-3.3867c0-0.78125-0.65234-1.4336-1.4531-1.4336l-22.793 0.003906c-0.78125 0-1.4336 0.65234-1.4336 1.4336v3.3867c0.003906 0.77734 0.65234 1.4297 1.4336 1.4297zm40.684-56.938c8.2695 0 14.957 6.707 14.957 14.957 0 8.2695-6.6875 14.957-14.957 14.957-8.25 0-14.957-6.6875-14.957-14.957 0-8.25 6.707-14.957 14.957-14.957zm-1.4766 5.9258c0-0.80469 0.67188-1.4766 1.4766-1.4766 0.82422 0 1.4766 0.67188 1.4766 1.4766v1.0195h3.8438c0.80469 0 1.4766 0.67188 1.4766 1.4766s-0.67187 1.4766-1.4766 1.4766h-7.3594c-0.5 0-0.93359 0.19531-1.2578 0.51953-0.32422 0.32422-0.54297 0.78125-0.54297 1.2812 0 0.47656 0.21875 0.93359 0.54297 1.2578 0.32422 0.32422 0.75781 0.51953 1.2578 0.51953h4.082c1.3008 0 2.4961 0.54297 3.3633 1.4102 0.023437 0.023437 0.042968 0.066406 0.085937 0.085937 0.80469 0.84766 1.3008 1.9961 1.3008 3.2578 0 1.3008-0.54297 2.4961-1.3906 3.3438-0.042969 0.023437-0.066406 0.066406-0.10938 0.085937-0.84766 0.80469-1.9961 1.3008-3.2578 1.3008h-0.5625v1.0195c0 0.82422-0.65234 1.4766-1.4766 1.4766-0.80469 0-1.4766-0.65234-1.4766-1.4766v-1.0195h-3.8438c-0.80469 0-1.4531-0.65234-1.4531-1.4766 0-0.80469 0.65234-1.4531 1.4531-1.4531h7.3594c0.47656 0 0.91016-0.19531 1.2148-0.47656 0.023437-0.023438 0.042968-0.042969 0.066406-0.066407 0.32422-0.32422 0.51953-0.76172 0.51953-1.2578 0-0.47656-0.17188-0.89062-0.47656-1.2148 0-0.023437-0.023437-0.042969-0.042968-0.066406-0.32422-0.32422-0.78125-0.51953-1.2812-0.51953h-4.082c-1.3008 0-2.4961-0.54297-3.3438-1.3906-0.86719-0.86719-1.3906-2.0391-1.3906-3.3438 0-1.3008 0.51953-2.4961 1.3906-3.3633 0.84766-0.84766 2.0391-1.3906 3.3438-1.3906h0.5625zm-68.488 51.012h22.793c0.80469 0 1.4531-0.65234 1.4531-1.4336v-3.3867c0-0.78125-0.65234-1.4336-1.4531-1.4336l-22.793 0.003906c-0.78125 0-1.4336 0.65234-1.4336 1.4336v3.3867c0 0.77734 0.65234 1.4297 1.4336 1.4297zm52.402-60.152c-0.5625 0-1.043-0.47656-1.043-1.043v-25.984c0-0.58594 0.47656-1.043 1.043-1.043h4.1914l-0.003906-0.30078c0-0.80469 0.65234-1.4766 1.457-1.4766 0.82422 0 1.4766 0.67188 1.4766 1.4766v0.71484c0 0.80469 0.65234 1.4531 1.4766 1.4531 0.80469 0 1.4531-0.65234 1.4531-1.4531v-0.41016h17.953v-0.30469c0-0.80469 0.67188-1.4766 1.4727-1.4766 0.82422 0 1.4766 0.67188 1.4766 1.4766v0.71484c0 0.80469 0.65234 1.4531 1.4766 1.4531 0.80469 0 1.4531-0.65234 1.4531-1.4531v-0.41016h1.2383c0.5625 0 1.043 0.45703 1.043 1.043v25.984c0 0.5625-0.47656 1.043-1.043 1.043zm15.305-17.41h4.5156v4.5156h-4.5156zm9.5273 8.7695h4.5352v4.5156h-4.5352zm-9.5273 0h4.5156v4.5156h-4.5156zm-9.5312 0h4.5156v4.5156h-4.5156zm19.059-8.7695h4.5352v4.5156h-4.5352zm-23.117 14.652h31.691v-18.777h-31.691zm-29.109-16.777c0-1.2148 0.36719-2.3867 0.45703-3.668 0.10937-1.2578-0.62891-2.9102-1.9102-2.7578-5.2539 0.62891-3.6914-2.1055-7.793-2.3672-0.95703 1.8242-2.2344 2.9102-3.8203 3.9727-0.86719-0.47656-1.7148-0.97656-2.5625-1.5195-0.67188-0.43359-1.5859-0.23828-2.0195 0.45703-0.43359 0.67187-0.23828 1.5859 0.45703 2.0195 2.9961 1.9102 6.1641 3.4961 9.4648 4.7109 3.3008 1.2148 6.75 2.082 10.27 2.582 0.80469 0.10937 1.543-0.45703 1.6484-1.2578 0.10938-0.80469-0.45703-1.543-1.2578-1.6484-0.98047-0.15625-1.957-0.30859-2.9336-0.52344zm-1.4336 5.5117c-1.3477 2.1719-3.7539 3.625-6.5117 3.625-4.2539 0-7.707-3.4531-7.707-7.707 0-0.39063 0.042969-0.76172 0.085938-1.1289 2.2148 1.1953 4.5156 2.2578 6.8828 3.125 2.3633 0.87109 4.7969 1.5664 7.25 2.0859z" fill-rule="evenodd"/>
</svg>